<svg width="917" height="917" viewBox="0 0 917 917" fill="none" xmlns="http://www.w3.org/2000/svg">
<path d="M458.5 0L462.698 394.447L518.346 3.92252L471.023 395.543L577.169 15.623L479.133 397.717L633.96 34.9012L486.891 400.93L687.75 61.4273L494.162 405.128L737.617 94.7475L500.823 410.239L782.708 134.292L506.761 416.177L822.253 179.383L511.872 422.838L855.573 229.25L516.07 430.109L882.099 283.04L519.283 437.867L901.377 339.831L521.457 445.977L913.078 398.654L522.553 454.302L917 458.5L522.553 462.698L913.078 518.346L521.457 471.023L901.377 577.169L519.283 479.133L882.099 633.96L516.07 486.891L855.573 687.75L511.872 494.162L822.253 737.617L506.761 500.823L782.708 782.708L500.823 506.761L737.617 822.253L494.162 511.872L687.75 855.573L486.891 516.07L633.96 882.099L479.133 519.283L577.169 901.377L471.023 521.457L518.346 913.078L462.698 522.553L458.5 917L454.302 522.553L398.654 913.078L445.977 521.457L339.831 901.377L437.867 519.283L283.04 882.099L430.109 516.07L229.25 855.573L422.838 511.872L179.383 822.253L416.177 506.761L134.292 782.708L410.239 500.823L94.7475 737.617L405.128 494.162L61.4273 687.75L400.93 486.891L34.9012 633.96L397.717 479.133L15.623 577.169L395.543 471.023L3.92252 518.346L394.447 462.698L0 458.5L394.447 454.302L3.92252 398.654L395.543 445.977L15.623 339.831L397.717 437.867L34.9012 283.04L400.93 430.109L61.4273 229.25L405.128 422.838L94.7475 179.383L410.239 416.177L134.292 134.292L416.177 410.239L179.383 94.7475L422.838 405.128L229.25 61.4273L430.109 400.93L283.04 34.9012L437.867 397.717L339.831 15.623L445.977 395.543L398.654 3.92252L454.302 394.447L458.5 0Z" fill="white"/>
</svg>
